<svg width="104" height="128" viewBox="0 0 104 128" fill="none" xmlns="http://www.w3.org/2000/svg">
<path d="M4 4L52 28V124L4 100V4Z" fill="#5FC9F8"/>
<path d="M100 4L52 28V124L100 100V4Z" fill="#04599C"/>
<path d="M98.5528 4.72361L52.4472 27.7764C52.1657 27.9172 51.8343 27.9172 51.5528 27.7764L5.44721 4.72361C4.78231 4.39116 4 4.87465 4 5.61803V99.382C4 99.7607 4.214 100.107 4.55279 100.276L51.5528 123.776C51.8343 123.917 52.1657 123.917 52.4472 123.776L99.4472 100.276C99.786 100.107 100 99.7607 100 99.382V5.61803C100 4.87465 99.2177 4.39116 98.5528 4.72361Z" stroke="black" stroke-width="8"/>
</svg>
